# xmcd CD database file
#
# Track frame offsets:
#	150
#	20350
#	37967
#	60103
#	75167
#	92676
#	103703
#	117295
#	136218
#	158007
#	180217
#	189950
#	198619
#	211021
#
# Disc length: 3209 seconds
#
# Revision: 0
# Processed by: cddbd v1.5.2PL0 Copyright (c) Steve Scherf et al.
# Submitted via: CDex 1.70beta2
#
DISCID=9a0c870e
DTITLE=Lover´s Jazz - Beautiful Love Songs
DYEAR=2008
DGENRE=Jazz
TTITLE0=Makin´ Whoopee
TTITLE1=Sunny
TTITLE2=Sabor a mi
TTITLE3=Sigue tu camino
TTITLE4=Yesterday
TTITLE5=My foolish heart
TTITLE6=Tenderly
TTITLE7=Love theme
TTITLE8=Por el amor de una mujer
TTITLE9=When I fall in love
TTITLE10=The shadow of your smile
TTITLE11=Siñal fechado
TTITLE12=Love is a many Splendored thing
TTITLE13=Rapture
EXTD=YEAR: 2008
EXTT0=
EXTT1=
EXTT2=
EXTT3=
EXTT4=
EXTT5=
EXTT6=
EXTT7=
EXTT8=
EXTT9=
EXTT10=
EXTT11=
EXTT12=
EXTT13=
PLAYORDER=
